<?xml version="1.0" encoding="UTF-8" standalone="no"?>
<!-- Created with Inkscape (http://www.inkscape.org/) -->

<svg
   version="1.1"
   id="svg1"
   width="802.21448"
   height="146"
   viewBox="0 0 802.21448 146"
   sodipodi:docname="fina.svg"
   inkscape:version="1.3.1 (91b66b0783, 2023-11-16)"
   xmlns:inkscape="http://www.inkscape.org/namespaces/inkscape"
   xmlns:sodipodi="http://sodipodi.sourceforge.net/DTD/sodipodi-0.dtd"
   xmlns="http://www.w3.org/2000/svg"
   xmlns:svg="http://www.w3.org/2000/svg">
  <sodipodi:namedview
     id="namedview1"
     pagecolor="#ffffff"
     bordercolor="#000000"
     borderopacity="0.25"
     inkscape:showpageshadow="2"
     inkscape:pageopacity="0.0"
     inkscape:pagecheckerboard="0"
     inkscape:deskcolor="#d1d1d1"
     showguides="true"
     inkscape:zoom="3.2310561"
     inkscape:cx="101.5148"
     inkscape:cy="45.960204"
     inkscape:window-width="1280"
     inkscape:window-height="957"
     inkscape:window-x="-9"
     inkscape:window-y="-9"
     inkscape:window-maximized="1"
     inkscape:current-layer="g3" />
  <defs
     id="defs1" />
  <g
     id="g1"
     style="display:inline"
     transform="translate(-13.408574)">
    <path
       id="text57"
       style="fill:#3a72ed;fill-opacity:0.968627;stroke-width:0.277;stroke-dasharray:none"
       d="m 495.89844,97.582031 -0.0176,0.07422 c 0.021,-0.0264 0.0421,-0.05127 0.0645,-0.07422 z m 1.00586,0 c 0.0346,0.03947 0.0662,0.0851 0.0957,0.134766 l 0.0352,-0.134766 z m -10.53125,0.478516 0.004,0.01563 c 0.003,-4.09e-4 0.007,-0.0015 0.01,-0.002 -0.005,-0.0046 -0.009,-0.0091 -0.0137,-0.01367 z m 0.3789,1.431641 0.0195,0.07617 c 0.008,0.006 0.0171,0.01211 0.0254,0.01953 -0.007,-0.01382 -0.0147,-0.0272 -0.0215,-0.04102 -0.008,-0.01803 -0.0155,-0.0366 -0.0234,-0.05469 z m 0.14063,0.533202 0.0781,0.29883 c 0.0504,0.006 0.10442,0.0173 0.16016,0.0371 -0.0309,-0.0497 -0.0633,-0.0981 -0.0957,-0.14649 -0.0456,-0.0645 -0.0944,-0.12684 -0.14258,-0.18945 z m 0.93164,2.22461 -0.002,0.002 c 0.003,0.003 0.007,0.005 0.01,0.008 -0.003,-0.003 -0.005,-0.007 -0.008,-0.01 z m -0.30469,0.14062 1.03516,3.91602 h 1.27734 l 0.29688,-1.20312 c -0.013,-0.008 -0.0261,-0.016 -0.0391,-0.0234 -0.0218,-0.0118 -0.0442,-0.0185 -0.0644,-0.0332 -0.0169,-0.0134 -0.0338,-0.0276 -0.0508,-0.041 -0.0113,-0.01 -0.0144,-0.0119 -0.0332,-0.0234 0.0144,0.006 -0.0263,-0.0146 -0.0293,-0.0176 -0.012,-0.008 -0.0159,-0.009 -0.0371,-0.0215 -0.0184,-0.0135 -0.0377,-0.0257 -0.0547,-0.041 -0.0213,-0.0213 -0.0404,-0.0447 -0.0566,-0.0703 -0.009,-0.0145 -0.0173,-0.0309 -0.0273,-0.0449 -0.008,-0.0158 -0.0262,-0.0226 -0.0332,-0.0391 -0.0103,-0.015 -0.0213,-0.0311 -0.0332,-0.0449 -0.0134,-0.0178 -0.0247,-0.0358 -0.0391,-0.0527 -0.015,-0.0184 -0.0301,-0.0381 -0.0449,-0.0566 -0.0122,-0.0139 -0.0241,-0.0262 -0.0391,-0.0371 -0.0136,-0.0126 -0.0263,-0.0261 -0.041,-0.0371 -0.0151,-0.0132 -0.029,-0.0286 -0.043,-0.043 -0.008,-0.008 -0.015,-0.0165 -0.0254,-0.0215 -0.0175,-0.0127 -0.0329,-0.0285 -0.0488,-0.043 -0.005,-0.005 -0.009,-0.007 -0.0117,-0.01 l -0.10742,0.4336 -0.24609,-0.97852 c -0.0234,-0.0247 -0.0477,-0.0494 -0.0742,-0.0703 -0.0261,-0.0213 -0.0501,-0.0449 -0.0762,-0.0664 -0.0284,-0.0241 -0.0567,-0.0488 -0.082,-0.0762 -0.0315,-0.0302 -0.0663,-0.0573 -0.0957,-0.0898 -0.0283,-0.0275 -0.0566,-0.0536 -0.084,-0.082 -0.0314,-0.0347 -0.0621,-0.0708 -0.0957,-0.10352 -0.0282,-0.0299 -0.0547,-0.0611 -0.0859,-0.0879 -0.005,-0.004 -0.009,-0.008 -0.0137,-0.0117 l -0.002,-0.002 c -0.006,-0.003 -0.011,-0.006 -0.0156,-0.01 -0.003,-9.5e-4 -0.008,-0.003 -0.0137,-0.006 -0.0253,-0.011 -0.0495,-0.0248 -0.0703,-0.043 -0.0274,-0.024 -0.0549,-0.0498 -0.082,-0.0742 -0.0279,-0.0279 -0.0528,-0.0576 -0.0781,-0.0879 -0.0273,-0.0311 -0.0526,-0.0617 -0.0762,-0.0957 -0.0231,-0.0312 -0.0458,-0.0641 -0.0703,-0.0937 -0.0233,-0.0261 -0.0478,-0.0511 -0.0723,-0.0762 -0.032,-0.0333 -0.0702,-0.0618 -0.0996,-0.0977 -0.0164,-0.0194 -0.0329,-0.0365 -0.0527,-0.0527 -0.0175,-0.0182 -0.0325,-0.0371 -0.0527,-0.0527 -0.0142,-0.0138 -0.0253,-0.0301 -0.043,-0.0391 -0.025,-0.0153 -0.05,-0.0296 -0.0723,-0.0488 -0.0222,-0.0198 -0.0426,-0.0403 -0.0625,-0.0625 -0.011,-0.0121 -0.0203,-0.027 -0.0332,-0.0371 z m 2.73828,0.85547 c 0.009,0.008 0.0181,0.017 0.0274,0.0254 0.005,-0.001 0.0106,-0.003 0.0156,-0.004 -0.0131,-0.007 -0.0259,-0.0144 -0.0391,-0.0215 -10e-4,-2.3e-4 -0.003,1.9e-4 -0.004,0 z" />
    <path
       style="fill:#3a72ed;fill-opacity:0.968627;stroke-width:0.0634628;stroke-dasharray:none"
       d="m 149.24412,132.30961 c 0,-2.33116 0.034,-3.28482 0.0756,-2.11924 0.0416,1.16558 0.0416,3.0729 0,4.23849 -0.0416,1.16558 -0.0756,0.21192 -0.0756,-2.11925 z"
       id="path60" />
    <path
       style="fill:#3a72ed;fill-opacity:0.968627;stroke-width:0.0634628;stroke-dasharray:none"
       d="m 148.79486,137.12087 c 0,-4.85135 0.0304,-6.83599 0.0675,-4.41032 0.0371,2.42568 0.0371,6.39497 0,8.82064 -0.0371,2.42568 -0.0675,0.44104 -0.0675,-4.41032 z m 1.09326,-2.69201 c -0.0528,-2.16175 -0.42019,-2.90678 -0.56487,-1.14554 -0.044,0.53554 -0.0336,-0.44389 0.0231,-2.17652 0.0923,-2.82052 0.0634,-3.15023 -0.27623,-3.15023 -0.31889,0 -0.38609,-0.30101 -0.42198,-1.89014 l -0.0427,-1.89013 -0.1488,1.94741 -0.14879,1.94741 -0.0762,-2.29107 c -0.0419,-1.26009 -0.0612,-4.24995 -0.0427,-6.64412 0.0184,-2.39417 0.0587,-8.16768 0.0894,-12.83002 0.0311,-4.71063 0.11325,-7.408154 0.18499,-6.07135 0.17734,3.30459 0.11204,12.80679 -0.11116,16.17421 -0.19061,2.87574 -0.0101,4.99084 0.34999,4.10181 0.12857,-0.31738 0.19057,-0.0592 0.20172,0.84006 0.0102,0.82277 0.12099,1.33314 0.30249,1.39348 0.199,0.0662 0.31068,0.85838 0.36602,2.59656 0.0438,1.37573 0.17508,2.56045 0.29171,2.6327 0.12167,0.0754 0.18304,1.93102 0.14397,4.35305 -0.0375,2.32192 -0.0914,3.26801 -0.11988,2.10243 z"
       id="path61" />
    <path
       style="fill:#3a72ed;fill-opacity:0.968627;stroke-width:0.277;stroke-dasharray:none"
       d="m 145.64115,0 0.16201,146 h 4.21663 L 150.33926,0 Z"
       id="path62" />
    <path
       style="fill:#3a72ed;fill-opacity:0.968627;stroke-width:0.277;stroke-dasharray:none"
       d="m 102.65791,96.386171 -4.968642,6.008579 v 5.81971 l -4.10356,-3.06565 -3.40207,2.10605 0.97202,-3.53725 -3.07807,-3.4289 6.96615,-0.48601 6.480142,-5.832129 -9.104082,-0.64801 -5.9568,5.026819 v -3.244789 l 1.61459,-2.10604 -4.21209,-1.13402 3.72608,-1.62004 -1.12858,-3.48083 h 3.07262 l 2.88418,3.64284 8.618072,-0.32401 -5.994132,-6.31814 -5.83213,-0.64801 3.20819,-2.30948 -1.91216,-3.59382 4.6981,1.5292 2.48353,-3.24007 v 3.40208 1.90261 l 4.968642,5.9568 1.29602,-7.53541 -5.184112,-5.18411 4.860112,0.48601 1.13402,-4.21209 1.94404,3.24007 6.10237,1.45803 -5.94036,2.19688 v 9.55062 l 5.94036,-5.9568 0.86378,-5.9527 3.56407,3.72608 3.24007,-2.59206 -0.97202,3.72608 2.10605,4.69811 -5.67012,-0.64802 -6.15614,5.18411 8.26218,1.13403 5.18411,-4.86011 -1.29602,4.05009 4.8601,2.43005 -4.6981,0.97202 2.43005,4.5361 -4.8601,-3.40207 -10.75273,-0.48601 6.86464,7.290149 h 7.61417 l -3.56408,3.1049 0.81002,4.49685 -3.40208,-3.06565 -3.56407,3.06565 0.162,-6.30572 -6.64214,-5.522569 -0.48601,7.331439 4.8601,5.9673 -4.53609,-0.32401 -0.64801,3.88809 -2.10605,-3.24007 -0.97202,-1.79446 -4.374102,1.14644 4.536102,-4.37409 -0.48601,-8.600639 z"
       id="path70" />
    <g
       id="g3"
       transform="translate(7.8529113,-2.7492907)">
      <path
         style="display:inline;fill:#fffdfd;fill-opacity:0.968627;stroke:#ff9e27;stroke-width:2.5888;stroke-linecap:square;stroke-linejoin:round;stroke-dasharray:none;stroke-opacity:1;paint-order:fill markers stroke"
         d="m 65.799873,51.645331 8.935644,2.815779 v 0 z"
         id="path82-0-2-04" />
      <path
         style="display:inline;fill:#fffdfd;fill-opacity:0.968627;stroke:#ff9e27;stroke-width:2.5888;stroke-linecap:square;stroke-linejoin:round;stroke-dasharray:none;stroke-opacity:1;paint-order:fill markers stroke"
         d="m 53.053359,68.700713 2.348671,9.069625 v 0 z"
         id="path82-0-2-04-8" />
      <path
         style="display:inline;fill:#fffdfd;fill-opacity:0.968627;stroke:#ff9e27;stroke-width:2.5888;stroke-linecap:square;stroke-linejoin:round;stroke-dasharray:none;stroke-opacity:1;paint-order:fill markers stroke"
         d="m 32.481504,69.89072 -4.968687,7.942701 v 0 z"
         id="path82-0-2-04-24" />
      <path
         style="display:inline;fill:#fffdfd;fill-opacity:0.968627;stroke:#ff9e27;stroke-width:2.5888;stroke-linecap:square;stroke-linejoin:round;stroke-dasharray:none;stroke-opacity:1;paint-order:fill markers stroke"
         d="m 42.196762,70.865856 -0.977417,9.317672 v 0 z"
         id="path82-0-2-04-29" />
      <g
         id="g2"
         style="fill:#000000;fill-opacity:0.96862698">
        <path
           style="fill:#000000;fill-opacity:0.96862698;stroke-width:0.277;stroke-dasharray:none"
           d="m 41.148891,55.081193 c 0,0 10.368224,-11.664253 10.368224,-11.664253"
           id="path74" />
        <path
           style="fill:#000000;fill-opacity:0.96862698;stroke:#ff9e27;stroke-width:1.8;stroke-dasharray:none;stroke-opacity:1"
           id="path78"
           d="" />
        <path
           id="path81"
           style="fill:#000000;fill-opacity:0.96862698;stroke:#ff9e27;stroke-width:0.194;stroke-dasharray:none;stroke-opacity:1"
           d="m 64.23535,48.516869 c 0.01357,0.0025 0.04003,0.0039 0.07227,0.0039 v -0.0039 z" />
        <path
           style="display:inline;fill:#000000;fill-opacity:0.96862698;stroke:#ff9e27;stroke-width:2.5888;stroke-linecap:square;stroke-linejoin:round;stroke-dasharray:none;stroke-opacity:1;paint-order:fill markers stroke"
           d="m 40.451625,27.632342 -0.574745,-9.35115 v 0 z"
           id="path82-0" />
        <path
           style="display:inline;fill:#000000;fill-opacity:0.96862698;stroke:#ff9e27;stroke-width:2.5888;stroke-linecap:square;stroke-linejoin:round;stroke-dasharray:none;stroke-opacity:1;paint-order:fill markers stroke"
           d="m 50.479267,27.524749 2.075695,-9.135964 v 0 z"
           id="path82-0-2" />
        <path
           style="display:inline;fill:#000000;fill-opacity:0.96862698;stroke:#ff9e27;stroke-width:2.5888;stroke-linecap:square;stroke-linejoin:round;stroke-dasharray:none;stroke-opacity:1;paint-order:fill markers stroke"
           d="m 57.912559,30.994316 4.399491,-8.271568 v 0 z"
           id="path82-0-2-1" />
        <path
           style="display:inline;fill:#000000;fill-opacity:0.96862698;stroke:#ff9e27;stroke-width:2.5888;stroke-linecap:square;stroke-linejoin:round;stroke-dasharray:none;stroke-opacity:1;paint-order:fill markers stroke"
           d="m 63.137585,35.865841 8.18048,-4.566629 v 0 z"
           id="path82-0-2-7" />
        <path
           style="display:inline;fill:#000000;fill-opacity:0.96862698;stroke:#ff9e27;stroke-width:2.5888;stroke-linecap:square;stroke-linejoin:round;stroke-dasharray:none;stroke-opacity:1;paint-order:fill markers stroke"
           d="m 65.222094,43.552985 9.364846,-0.272091 v 0 z"
           id="path82-0-2-0" />
        <path
           style="display:inline;fill:#000000;fill-opacity:0.96862698;stroke:#ff9e27;stroke-width:2.5888;stroke-linecap:square;stroke-linejoin:round;stroke-dasharray:none;stroke-opacity:1;paint-order:fill markers stroke"
           d="m 64.168534,58.367095 8.234673,4.468166 v 0 z"
           id="path82-0-2-04-6" />
        <path
           style="display:inline;fill:#000000;fill-opacity:0.96862698;stroke:#ff9e27;stroke-width:2.5888;stroke-linecap:square;stroke-linejoin:round;stroke-dasharray:none;stroke-opacity:1;paint-order:fill markers stroke"
           d="m 60.839515,63.909657 5.670567,7.457814 v 0 z"
           id="path82-0-2-04-5" />
        <path
           style="display:inline;fill:#000000;fill-opacity:0.96862698;stroke:#ff9e27;stroke-width:2.5888;stroke-linecap:square;stroke-linejoin:round;stroke-dasharray:none;stroke-opacity:1;paint-order:fill markers stroke"
           d="m 16.032502,34.871554 8.935644,2.815779 v 0 z"
           id="path82-0-2-04-3" />
        <path
           style="display:inline;fill:#000000;fill-opacity:0.96862698;stroke:#ff9e27;stroke-width:2.5888;stroke-linecap:square;stroke-linejoin:round;stroke-dasharray:none;stroke-opacity:1;paint-order:fill markers stroke"
           d="m 13.726772,59.344345 9.096885,-2.240764 v 0 z"
           id="path82-0-2-04-2" />
        <path
           style="display:inline;fill:#000000;fill-opacity:0.96862698;stroke:#ff9e27;stroke-width:2.5888;stroke-linecap:square;stroke-linejoin:round;stroke-dasharray:none;stroke-opacity:1;paint-order:fill markers stroke"
           d="m 27.134808,65.170447 -7.598017,5.481285 v 0 z"
           id="path82-0-2-04-9" />
        <path
           style="display:inline;fill:#000000;fill-opacity:0.96862698;stroke:#ff9e27;stroke-width:2.5888;stroke-linecap:square;stroke-linejoin:round;stroke-dasharray:none;stroke-opacity:1;paint-order:fill markers stroke"
           d="m 13.726803,45.344555 9.030519,2.290456 v 0 z"
           id="path82-0-2-04-37" />
        <path
           style="display:inline;fill:#000000;fill-opacity:0.96862698;stroke:#ff9e27;stroke-width:2.5888;stroke-linecap:square;stroke-linejoin:round;stroke-dasharray:none;stroke-opacity:1;paint-order:fill markers stroke"
           d="m 23.624412,23.745175 6.563379,6.685537 v 0 z"
           id="path82-0-2-04-20" />
      </g>
      <path
         style="fill:#ff9e27;fill-opacity:1;stroke:#ff9e27;stroke-width:2.382;stroke-linecap:round;stroke-linejoin:round;stroke-opacity:1;paint-order:markers fill stroke"
         id="path26"
         sodipodi:type="arc"
         sodipodi:cx="43.985279"
         sodipodi:cy="50.200253"
         sodipodi:rx="15.570787"
         sodipodi:ry="13.920808"
         sodipodi:start="0"
         sodipodi:end="6.2313961"
         sodipodi:open="true"
         sodipodi:arc-type="arc" />
    </g>
    <path
       id="text60"
       style="font-style:normal;font-variant:normal;font-weight:normal;font-stretch:normal;font-size:103.533px;font-family:Georgia;-inkscape-font-specification:Georgia;display:inline;fill:#3a72ed;fill-opacity:0.968627;stroke-width:0.268861;stroke-dasharray:none"
       d="m 436.22559,32.00977 -17.91016,1.19922 v 3.33203 c 0.91593,0.0695 2.11003,0.20963 3.58203,0.41796 1.50474,0.17362 2.55181,0.48612 3.14062,0.9375 0.8178,0.59028 1.47222,1.4757 1.96289,2.65626 0.5234,1.18055 0.78517,2.36046 0.78517,3.54101 v 59.79102 c 0,1.25 -0.22955,2.2756 -0.68751,3.07422 -0.45793,0.76389 -1.14461,1.30078 -2.06055,1.61328 -0.55609,0.17361 -1.24275,0.3138 -2.06054,0.41797 -0.81779,0.0694 -1.60313,0.13758 -2.35547,0.20702 v 3.4375 h 23.74805 v -3.4375 c -0.91593,-0.0694 -1.7657,-0.18966 -2.55078,-0.36327 -0.75238,-0.17361 -1.48933,-0.43403 -2.20899,-0.78126 -0.9159,-0.41666 -1.60258,-1.00759 -2.06055,-1.77148 -0.42525,-0.76389 -0.63671,-1.73546 -0.63671,-2.91602 V 73.83399 c 0.32711,-0.59028 0.78423,-1.31945 1.37304,-2.1875 0.58882,-0.86806 1.43858,-1.73742 2.55079,-2.60547 1.14491,-0.83334 2.43763,-1.52648 3.87694,-2.08203 1.47204,-0.59028 3.05878,-0.88672 4.75977,-0.88672 2.32254,0 4.28579,0.98958 5.88868,2.96875 1.63556,1.97916 2.45312,4.79166 2.45312,8.4375 v 26.40625 c 0,1.25 -0.22953,2.2756 -0.6875,3.07422 -0.42526,0.76389 -1.09579,1.30078 -2.01172,1.61328 -0.58882,0.20833 -1.33993,0.34852 -2.25586,0.41797 -0.9159,0.0694 -1.75153,0.13758 -2.50391,0.20702 v 3.4375 h 23.75 v -3.4375 c -0.98135,-0.0694 -1.78277,-0.17361 -2.4043,-0.31249 -0.58877,-0.17361 -1.25933,-0.41601 -2.01171,-0.72852 -0.94864,-0.41667 -1.63725,-0.98958 -2.0625,-1.71875 -0.39254,-0.76389 -0.58789,-1.7535 -0.58789,-2.96874 V 76.75 c 0,-5.45139 -1.16184,-9.61805 -3.48438,-12.5 -2.32254,-2.91667 -5.64297,-4.375 -9.96093,-4.375 -2.09357,0 -3.99042,0.27843 -5.69141,0.83399 -1.6683,0.55555 -3.12416,1.24869 -4.36718,2.08203 -1.43933,0.97222 -2.60116,1.90972 -3.48439,2.8125 -0.88321,0.86805 -1.86386,1.87565 -2.94336,3.02148 h -0.1953 V 32.79102 Z m 211.48242,1.71875 c -1.66831,0 -3.12414,0.7131 -4.36719,2.13671 -1.21034,1.42362 -1.81641,3.09028 -1.81641,5.00001 0,1.80555 0.60607,3.42013 1.81641,4.84375 1.24305,1.38888 2.69888,2.08203 4.36719,2.08203 1.79915,0 3.30333,-0.72917 4.51367,-2.1875 1.24305,-1.49306 1.86524,-3.22787 1.86524,-5.20703 0,-1.77084 -0.60611,-3.31728 -1.81641,-4.63672 -1.17763,-1.35417 -2.69793,-2.03125 -4.5625,-2.03125 z m -461.82617,5 v 3.69921 c 0.88318,0.0695 1.8639,0.25977 2.94335,0.57227 1.11221,0.27778 2.07674,0.71246 2.89454,1.30273 0.98135,0.69445 1.75054,1.45769 2.30664,2.29102 0.58878,0.83333 1.02981,1.78885 1.32421,2.86523 1.17764,4.44445 3.50129,13.21051 6.96876,26.30079 3.46742,13.05556 6.82011,25.65971 10.05859,37.8125 h 4.31835 l 18.30274,-56.875 17.5664,56.875 h 4.51368 c 3.56559,-12.11807 6.88603,-23.52431 9.96094,-34.21875 3.07488,-10.72917 5.77316,-20.10417 8.0957,-28.125 0.52339,-1.77084 1.12946,-3.14106 1.81641,-4.11328 0.71966,-1.00695 1.65196,-1.89236 2.79687,-2.65626 0.91593,-0.59027 1.9127,-1.05902 2.99219,-1.40625 1.07949,-0.38194 2.0279,-0.59027 2.84571,-0.625 v -3.69921 h -25.26954 v 3.69921 c 3.40203,0.27778 5.85463,0.81467 7.35938,1.61329 1.53746,0.79861 2.30663,1.78819 2.30663,2.96875 0,0.83333 -0.0986,1.85894 -0.29491,3.07421 -0.19628,1.18056 -0.68562,3.38412 -1.47071,6.61329 -1.1122,4.58333 -2.51968,10.10416 -4.2207,16.5625 -1.70102,6.42361 -3.72873,13.94162 -6.08399,22.55273 L 240.39551,39.77149 h -4.8086 l -17.36913,54.84375 c -3.76188,-14.02778 -6.60907,-24.54862 -8.53907,-31.56251 -1.89729,-7.04861 -3.22224,-12.10069 -3.97461,-15.15624 -0.0654,-0.34723 -0.146,-0.79992 -0.24414,-1.35547 -0.0981,-0.59028 -0.14844,-1.05903 -0.14844,-1.40625 0,-0.90278 0.86784,-1.54384 2.60157,-1.92579 1.76643,-0.38194 3.8928,-0.64236 6.37891,-0.78125 v -3.69921 z m 378.50977,0 v 3.69921 c 0.91589,0.0695 1.91269,0.25977 2.99218,0.57227 1.07949,0.27778 2.06013,0.71246 2.94336,1.30273 1.07949,0.72917 1.94732,1.51042 2.60156,2.34376 0.65424,0.79861 1.17777,1.73611 1.57032,2.81249 1.57014,4.37501 4.54629,12.79449 8.92968,25.25977 4.38339,12.46528 8.93012,25.416 13.64063,38.85352 h 4.07226 c 4.64509,-12.67363 9.15957,-24.8431 13.54297,-36.50977 4.38336,-11.70139 7.67159,-20.31315 9.86328,-25.83398 0.65424,-1.56251 1.30866,-2.91667 1.96289,-4.0625 0.68695,-1.14584 1.58701,-2.08334 2.69922,-2.8125 0.78509,-0.52084 1.78184,-0.95356 2.99219,-1.30079 1.21034,-0.38194 2.24129,-0.59027 3.09179,-0.625 v -3.69921 h -25.9082 v 3.69921 c 1.14492,0.10417 2.27451,0.24241 3.38672,0.41602 1.11218,0.17361 2.20762,0.43403 3.28711,0.78125 1.1122,0.38195 1.9942,0.85069 2.64844,1.40625 0.68695,0.52083 1.03125,1.17991 1.03125,1.97852 0,0.76388 -0.0987,1.75347 -0.29492,2.96875 -0.16356,1.21527 -0.7838,3.40277 -1.86329,6.5625 -1.1122,3.26389 -3.28889,9.27148 -6.52734,18.02148 -3.23847,8.75 -6.09986,16.33615 -8.58593,22.75977 -5.00493,-14.2014 -8.865,-25.13889 -11.58009,-32.8125 -2.71508,-7.70834 -4.67833,-13.26324 -5.88867,-16.66602 -0.0981,-0.3125 -0.2129,-0.72917 -0.34375,-1.25 -0.13085,-0.52083 -0.19531,-0.97157 -0.19531,-1.35351 0,-0.97223 0.83365,-1.64931 2.50195,-2.03126 1.70102,-0.38194 3.77904,-0.64236 6.23243,-0.78125 V 38.72852 Z M 392.89942,45.5 v 15.99024 h -8.93165 v 5 h 8.73438 v 34.79101 c 0,3.95835 0.81753,7.03125 2.45313,9.21875 1.66827,2.15278 4.53161,3.22852 8.58789,3.22852 2.74776,0 5.0695,-0.32856 6.96679,-0.98829 1.89729,-0.625 3.90888,-1.40625 6.03516,-2.34374 v -3.80274 c -0.65424,0.24306 -1.78188,0.45139 -3.38477,0.625 -1.57017,0.13889 -2.76423,0.20899 -3.58203,0.20899 -1.76644,0 -3.17396,-0.26042 -4.2207,-0.78126 -1.04678,-0.52083 -1.83208,-1.28601 -2.35548,-2.29297 -0.55609,-1.07635 -0.91456,-2.32638 -1.07812,-3.74999 -0.13085,-1.45834 -0.19727,-3.26324 -0.19727,-5.41602 V 66.49024 h 13.78907 v -5 H 401.8291 V 45.5 Z m -83.1211,14.32227 c -3.43475,0 -6.54371,0.76519 -9.32422,2.29296 -2.7478,1.49306 -5.05339,3.47223 -6.91797,5.93751 -1.92999,2.56944 -3.40195,5.46809 -4.41602,8.69726 -0.98132,3.19445 -1.47265,6.45768 -1.47265,9.79102 0,3.71527 0.45906,7.24088 1.375,10.57421 0.94864,3.33334 2.37029,6.24999 4.26758,8.75001 1.89729,2.49997 4.30157,4.47916 7.21288,5.9375 2.94407,1.45834 6.36315,2.18749 10.25587,2.18749 4.41607,0 8.32452,-1.21592 11.72656,-3.64648 3.40203,-2.43057 6.11838,-5.69378 8.14648,-9.79101 l -3.43554,-2.24024 c -1.96271,3.75 -4.00654,6.35416 -6.13282,7.8125 -2.09352,1.42362 -4.59647,2.13477 -7.5078,2.13477 -2.84594,0 -5.29854,-0.57292 -7.35938,-1.71875 -2.06085,-1.18056 -3.73013,-2.77712 -5.00586,-4.79102 -1.30848,-2.08333 -2.27301,-4.49718 -2.89453,-7.24023 -0.58882,-2.74306 -0.88281,-5.79796 -0.88281,-9.16602 h 32.04101 v -3.4375 c 0,-3.09028 -0.37653,-5.95486 -1.1289,-8.59375 -0.71967,-2.63889 -1.83123,-4.93056 -3.33594,-6.875 -1.57018,-2.04861 -3.61596,-3.66319 -6.13477,-4.84375 -2.51881,-1.18056 -5.54331,-1.77148 -9.07617,-1.77148 z m 46.41797,0 c -1.99542,0 -4.0412,0.34852 -6.13477,1.04297 -2.09355,0.65972 -3.87562,1.47504 -5.34766,2.44726 -1.70101,1.14583 -3.09042,2.44792 -4.16991,3.90625 -1.04679,1.45834 -1.57032,2.98676 -1.57032,4.58399 0,1.52777 0.37458,2.91601 1.12696,4.16601 0.78508,1.21528 1.99722,1.82227 3.6328,1.82227 1.83187,0 3.25352,-0.50282 4.26759,-1.50977 1.04678,-1.00694 1.57031,-2.1187 1.57031,-3.33398 0,-1.14584 -0.16312,-2.39584 -0.49024,-3.75 -0.29441,-1.35417 -0.44141,-2.37783 -0.44141,-3.07227 0.5234,-0.59028 1.42346,-1.14518 2.69922,-1.66602 1.30848,-0.55555 2.71401,-0.83398 4.21876,-0.83398 2.19169,0 3.87706,0.48676 5.05468,1.45899 1.21034,0.9375 2.14264,2.0473 2.79688,3.33203 0.58881,1.14583 0.96534,2.36176 1.1289,3.64648 0.19628,1.28472 0.29297,2.15213 0.29297,2.60352 v 5.15625 c -1.57017,0.90277 -4.61076,2.15277 -9.125,3.75 -4.4815,1.59722 -7.45963,2.69097 -8.93163,3.28125 -1.17763,0.48611 -2.43617,1.14713 -3.77736,1.98046 -1.34115,0.79862 -2.4205,1.7181 -3.23827,2.75977 -1.04678,1.25 -1.83208,2.65625 -2.35547,4.21875 -0.52339,1.5625 -0.78515,3.33333 -0.78515,5.3125 0,3.81945 1.15987,6.91036 3.48242,9.27149 2.35525,2.36111 5.34948,3.54101 8.98046,3.54101 3.43475,0 6.36253,-0.65906 8.78321,-1.97851 2.45336,-1.31945 4.74287,-3.23046 6.86914,-5.73048 h 0.29492 c 0.42526,2.43057 1.38978,4.2895 2.89453,5.57423 1.53746,1.24999 3.58132,1.875 6.13281,1.875 1.47204,0 2.78087,-0.19228 3.92579,-0.57422 1.17762,-0.34723 2.53481,-0.81598 4.07226,-1.40625 v -3.33204 c -1.11221,0 -2.20762,-0.018 -3.28711,-0.0527 -1.04678,-0.0347 -1.81596,-0.209 -2.30664,-0.5215 -0.91594,-0.55555 -1.60258,-1.23264 -2.06055,-2.03124 -0.42525,-0.79862 -0.63671,-1.87435 -0.63671,-3.22852 0,-4.54861 0.0483,-8.73329 0.14648,-12.55273 0.0981,-3.85417 0.14648,-8.26324 0.14648,-13.22852 0,-3.47222 -0.44099,-6.30273 -1.32422,-8.49023 -0.85051,-2.22223 -2.10903,-3.97505 -3.77734,-5.25977 -1.66831,-1.31944 -3.5329,-2.17079 -5.59375,-2.55273 -2.02813,-0.41667 -4.4163,-0.625 -7.16406,-0.625 z m 145.97656,0 c -3.43474,0 -6.54176,0.76519 -9.32227,2.29296 -2.7478,1.49306 -5.05534,3.47223 -6.91992,5.93751 -1.92999,2.56944 -3.40197,5.46809 -4.41601,8.69726 -0.98136,3.19445 -1.47071,6.45768 -1.47071,9.79102 0,3.71527 0.45712,7.24088 1.37305,10.57421 0.94864,3.33334 2.37225,6.24999 4.26953,8.75001 1.89729,2.49997 4.30154,4.47916 7.2129,5.9375 2.94403,1.45834 6.36119,2.18749 10.2539,2.18749 4.41607,0 8.32651,-1.21592 11.72851,-3.64648 3.40204,-2.43057 6.11643,-5.69378 8.14453,-9.79101 l -3.43554,-2.24024 c -1.96271,3.75 -4.00654,6.35416 -6.13282,7.8125 -2.09352,1.42362 -4.59645,2.13477 -7.5078,2.13477 -2.84594,0 -5.29853,-0.57292 -7.35938,-1.71875 -0.71721,-0.41086 -1.34398,-0.91782 -1.95313,-1.44336 -3.9e-4,-3.4e-4 -0.002,3.4e-4 -0.002,0 -0.01,-0.006 -0.0195,-0.0121 -0.0293,-0.0176 -0.0218,-0.0118 -0.0443,-0.0185 -0.0645,-0.0332 -0.0169,-0.0134 -0.0338,-0.0276 -0.0508,-0.041 -0.0113,-0.0103 -0.0144,-0.012 -0.0332,-0.0235 0.0144,0.006 -0.0263,-0.0146 -0.0293,-0.0176 -0.012,-0.007 -0.0159,-0.009 -0.0371,-0.0215 -0.0184,-0.0135 -0.0377,-0.0258 -0.0547,-0.041 -0.0196,-0.0197 -0.0374,-0.0411 -0.0527,-0.0645 -0.15122,-0.1391 -0.27283,-0.30954 -0.41798,-0.45508 -0.008,-0.002 -0.0179,-0.004 -0.0234,-0.008 -0.0115,-0.006 -0.0227,-0.0143 -0.0351,-0.0176 h -0.002 c -0.0875,-0.0207 -0.10444,-0.0841 -0.0683,-0.11914 -0.49503,-0.50952 -0.99191,-1.01722 -1.42383,-1.59376 -0.005,-0.004 -0.009,-0.009 -0.0137,-0.0137 -0.0175,-0.0182 -0.0325,-0.0371 -0.0527,-0.0527 -0.0142,-0.0138 -0.0252,-0.0301 -0.043,-0.0391 -0.025,-0.0153 -0.0499,-0.0296 -0.0723,-0.0488 -0.0222,-0.0198 -0.0426,-0.0403 -0.0625,-0.0625 -0.012,-0.0132 -0.0224,-0.0289 -0.0371,-0.0391 -0.002,-0.002 -0.004,-0.004 -0.006,-0.006 -0.0777,-0.046 -0.14796,-0.10626 -0.20899,-0.18359 -0.0225,-0.082 -0.0643,-0.16109 -0.0683,-0.24609 v -0.002 c -0.0578,-0.0638 -0.1167,-0.12639 -0.16406,-0.20117 -1.30848,-2.08334 -2.27302,-4.49718 -2.89454,-7.24024 -0.58881,-2.74305 -0.88281,-5.79796 -0.88281,-9.16601 h 32.04102 v -3.43685 c 0,-3.09028 -0.37653,-5.95486 -1.12891,-8.59375 -0.71966,-2.63889 -1.83122,-4.93056 -3.33593,-6.875 -1.57018,-2.04861 -3.614,-3.66319 -6.13282,-4.84375 -2.51879,-1.18056 -5.54527,-1.77148 -9.07812,-1.77148 z m 186.16406,0 c -3.43471,0 -6.54371,0.76519 -9.32422,2.29296 -2.74776,1.49306 -5.05341,3.47223 -6.91796,5.93751 -1.93001,2.56944 -3.40195,5.46809 -4.41602,8.69726 -0.98135,3.19445 -1.47266,6.45768 -1.47266,9.79102 0,3.71527 0.45907,7.24088 1.37501,10.57421 0.94864,3.33334 2.37031,6.24999 4.26757,8.75001 1.89729,2.49997 4.30153,4.47916 7.21289,5.9375 2.94407,1.45834 6.36318,2.18749 10.25586,2.18749 4.41611,0 8.32453,-1.21592 11.72657,-3.64648 3.402,-2.43057 6.11834,-5.69378 8.14648,-9.79101 l -3.43555,-2.24024 c -1.96268,3.75 -4.00654,6.35416 -6.13281,7.8125 -2.09356,1.42362 -4.59646,2.13477 -7.50782,2.13477 -2.8459,0 -5.29852,-0.57292 -7.35937,-1.71875 -2.06085,-1.18056 -3.7301,-2.77712 -5.00586,-4.79102 -1.30847,-2.08333 -2.273,-4.49718 -2.89453,-7.24023 -0.58881,-2.74306 -0.88281,-5.79796 -0.88281,-9.16602 h 32.04101 v -3.4375 c 0,-3.09028 -0.37653,-5.95486 -1.1289,-8.59375 -0.71966,-2.63889 -1.83119,-4.93056 -3.33594,-6.875 -1.57017,-2.04861 -3.61598,-3.66319 -6.13476,-4.84375 -2.51882,-1.18056 -5.5433,-1.77148 -9.07618,-1.77148 z m -129.63867,0.20898 c -2.06085,0 -4.33421,0.72917 -6.82031,2.1875 -2.48608,1.45834 -4.74334,3.59375 -6.77149,6.40625 h -0.24414 v -7.24023 l -0.6875,-0.72852 -16.09374,1.14649 v 3.38476 c 0.98135,0.0694 1.89754,0.20768 2.74804,0.41602 0.85051,0.17361 1.5855,0.47005 2.20703,0.88672 0.85051,0.62499 1.50492,1.45833 1.96289,2.49999 0.49069,1.04167 0.73633,2.0994 0.73633,3.17579 v 31.71875 c 0,1.25 -0.22953,2.2756 -0.6875,3.07422 -0.42526,0.76389 -1.09579,1.30078 -2.01172,1.61328 -0.58882,0.20833 -1.29157,0.34852 -2.10938,0.41797 -0.78508,0.0694 -1.55426,0.13758 -2.30663,0.20702 v 3.4375 h 25.51562 v -3.4375 c -0.94864,-0.0694 -2.07824,-0.18966 -3.38672,-0.36327 -1.27576,-0.17361 -2.32087,-0.43403 -3.13867,-0.78126 -0.94864,-0.38194 -1.65336,-0.95485 -2.11132,-1.71875 -0.42526,-0.76388 -0.63673,-1.75346 -0.63673,-2.96875 V 73.46875 c 1.43933,-2.43056 3.18916,-4.30555 5.25,-5.625 2.06085,-1.31944 3.85906,-1.97851 5.39648,-1.97851 -0.0981,0.62499 -0.21289,1.25 -0.34374,1.875 -0.0981,0.62499 -0.14649,1.31814 -0.14649,2.08203 0,1.21527 0.47519,2.32704 1.42383,3.33398 0.98135,1.00695 2.38689,1.50977 4.21875,1.50977 1.70102,0 2.9615,-0.67709 3.7793,-2.03125 0.81779,-1.38889 1.22656,-2.96745 1.22656,-4.73828 0,-2.39584 -0.65441,-4.30686 -1.96289,-5.73047 -1.27576,-1.42361 -2.94501,-2.13477 -5.00586,-2.13477 z m 93.72071,0.625 -17.07618,1.14649 v 3.38476 c 0.98136,0.0694 2.06065,0.25977 3.23828,0.57227 1.17764,0.27778 2.0777,0.6263 2.69922,1.04297 0.85051,0.62499 1.50493,1.40625 1.96289,2.34374 0.49068,0.90278 0.73633,1.90842 0.73633,3.01954 v 31.71875 c 0,1.25 -0.22954,2.2756 -0.6875,3.07422 -0.42522,0.76389 -1.09578,1.30078 -2.01172,1.61328 -0.58881,0.20833 -1.29158,0.34852 -2.10937,0.41797 -0.78508,0.0694 -1.55427,0.13758 -2.30664,0.20702 v 3.4375 h 23.4043 v -3.4375 c -0.85052,-0.0694 -1.61774,-0.18966 -2.3047,-0.36327 -0.68694,-0.20834 -1.39166,-0.46876 -2.11132,-0.78126 -0.94865,-0.38194 -1.65141,-0.97286 -2.10938,-1.77148 -0.42525,-0.79861 -0.63866,-1.8062 -0.63866,-3.02149 V 61.38477 Z m 58.58593,0.625 v 3.4375 c 1.3739,0.17361 2.7975,0.72852 4.26954,1.66602 1.47203,0.9375 2.46879,2.22352 2.99218,3.85546 1.79915,5.62501 3.86108,12.23959 6.18359,19.84375 2.35526,7.56945 4.7595,15.20767 7.21289,22.91602 h 4.02345 L 748.78808,75.1875 761.79004,113 h 4.2207 c 0.49068,-1.90973 1.03036,-3.9069 1.61914,-5.99023 0.62152,-2.08334 1.22565,-4.02648 1.81445,-5.83203 1.79916,-5.69445 3.42006,-10.81663 4.85938,-15.36524 1.47204,-4.58333 3.02456,-9.42708 4.66016,-14.53125 0.71965,-2.15278 1.8654,-3.76736 3.43554,-4.84375 1.60289,-1.07639 3.09095,-1.68338 4.46485,-1.82227 v -3.33398 h -18.40039 v 3.33398 c 0.3598,0 0.91559,0.0682 1.66797,0.20704 0.78508,0.13889 1.50591,0.34722 2.16015,0.625 0.75237,0.31249 1.38872,0.7131 1.91211,1.19922 0.52339,0.4861 0.78516,1.04101 0.78516,1.66601 0,0.72917 -0.11477,1.47635 -0.34376,2.24023 -0.19627,0.72917 -0.40772,1.54449 -0.63671,2.44727 -1.04679,3.81944 -2.27308,7.91601 -3.67969,12.29102 -1.3739,4.34028 -2.76526,8.83745 -4.17187,13.49023 L 753.54785,62.32227 h -4.71094 l -12.36523,36.98047 c -2.09357,-7.18751 -3.81119,-13.02084 -5.15234,-17.50001 -1.30848,-4.51389 -2.48643,-8.59439 -3.5332,-12.24023 -0.16356,-0.52083 -0.31056,-1.00759 -0.44141,-1.45898 -0.0981,-0.45139 -0.14649,-0.74588 -0.14649,-0.88477 0,-0.79861 0.62024,-1.37153 1.86329,-1.71875 1.27573,-0.34722 2.45373,-0.53754 3.53319,-0.57227 v -3.64648 z m -401.32617,2.44727 c 2.06085,0 3.74621,0.50477 5.05468,1.51172 1.30848,1.00694 2.33946,2.30902 3.0918,3.90624 0.68696,1.49306 1.1763,3.35005 1.47071,5.57227 0.32712,2.22222 0.49218,4.30556 0.49218,6.25 h -22.37499 c 0.19627,-5.41667 1.4226,-9.63542 3.67968,-12.65625 2.28983,-3.05556 5.15122,-4.58398 8.58594,-4.58398 z m 192.39649,0 c 2.06081,0 3.74428,0.50477 5.05272,1.51172 1.30848,1.00694 2.33944,2.30902 3.09181,3.90624 0.68692,1.49306 1.17824,3.35005 1.47265,5.57227 0.32712,2.22222 0.49024,4.30556 0.49024,6.25 h -22.375 c 0.19627,-5.41667 1.4226,-9.63542 3.67968,-12.65625 2.28983,-3.05556 5.15315,-4.58398 8.5879,-4.58398 z m 186.16211,0 c 2.06084,0 3.74621,0.50477 5.05468,1.51172 1.30847,1.00694 2.33942,2.30902 3.0918,3.90624 0.68694,1.49306 1.1763,3.35005 1.4707,5.57227 0.32712,2.22222 0.49219,4.30556 0.49219,6.25 h -22.375 c 0.19627,-5.41667 1.42256,-9.63542 3.67969,-12.65625 2.28983,-3.05556 5.15119,-4.58398 8.58594,-4.58398 z m -323.30664,20.46875 -0.29492,17.96875 c -1.21035,1.63195 -2.69841,3.0562 -4.46486,4.27148 -1.7664,1.18056 -3.81221,1.77148 -6.13476,1.77148 -2.19169,0 -4.00599,-0.67707 -5.44531,-2.03125 -1.40661,-1.35414 -2.11132,-3.47352 -2.11132,-6.35546 0,-2.22223 0.47517,-4.1313 1.42382,-5.72852 0.94862,-1.63194 2.24135,-3.03819 3.87695,-4.21875 1.79916,-1.25 3.74436,-2.29167 5.83789,-3.125 2.09356,-0.83333 4.532,-1.68468 7.31251,-2.55273 z" />
    <path
       style="fill:#3a72ed;fill-opacity:0.968627;fill-rule:evenodd;stroke:#3a72ed;stroke-width:3.00939;stroke-linecap:round;stroke-linejoin:miter;stroke-dasharray:none;stroke-opacity:0.968627"
       d="M 139.05472,12.454909 28.676275,128.18121"
       id="path82" />
  </g>
  <path
     style="fill:#190000;fill-opacity:0.0255102;stroke:#ff9e27;stroke-width:2.74778;stroke-linecap:round;stroke-linejoin:round;stroke-opacity:1;paint-order:markers fill stroke"
     id="path1" />
</svg>
